<svg xmlns="http://www.w3.org/2000/svg" width="936" height="244" viewBox="0 0 936 244">
    <path d="M28 72H908L928 92V211L906 236H30L8 211V92Z" fill="#06131DDD" stroke="#7294A69C" stroke-width="2"/>
    <path d="M29 88H907" stroke="#83AABB80" stroke-width="2"/>
    <path d="M40 230H896" stroke="#4CBECE80" stroke-width="2"/>
    <path d="M17 117V99L33 83M919 117V99L903 83" fill="none" stroke="#A6D3DD88" stroke-width="2"/>
    <path d="M60 199H240L248 207V222H52V207Z" fill="#0B2531" stroke="#638FA199" stroke-width="2"/>
<path d="M268 199H448L456 207V222H260V207Z" fill="#0B2531" stroke="#638FA199" stroke-width="2"/>
<path d="M476 199H656L664 207V222H468V207Z" fill="#0B2531" stroke="#638FA199" stroke-width="2"/>
<path d="M684 199H864L872 207V222H676V207Z" fill="#0B2531" stroke="#638FA199" stroke-width="2"/>
  </svg>
